<svg width="21" height="21" viewBox="0 0 21 21" fill="none" xmlns="http://www.w3.org/2000/svg">
<g clip-path="url(#clip0_37_649)">
<path fill-rule="evenodd" clip-rule="evenodd" d="M19.1929 0.333313H1.40089C0.79089 0.333313 0.29689 0.827313 0.29689 1.43731V19.2293C0.29689 19.8393 0.79089 20.3333 1.40089 20.3333H10.9789V12.5883H8.37289V9.57031H10.9789V7.34331C10.9789 4.75931 12.5569 3.35331 14.8619 3.35331C15.9659 3.35331 16.9139 3.43531 17.1909 3.47231V6.17231H15.5929C14.3389 6.17231 14.0969 6.76831 14.0969 7.64231V9.56931H17.0859L16.6959 12.5873H14.0959V20.3333H19.1929C19.8029 20.3333 20.2969 19.8393 20.2969 19.2293V1.43731C20.2969 0.827313 19.8029 0.333313 19.1929 0.333313Z" fill="white"/>
</g>
<defs>
<clipPath id="clip0_37_649">
<rect width="20" height="20" fill="white" transform="translate(0.29689 0.333313)"/>
</clipPath>
</defs>
</svg>
