<svg width="25" height="25" viewBox="0 0 25 25" fill="none" xmlns="http://www.w3.org/2000/svg">
<path d="M13.3249 2.33331C14.4499 2.33631 15.0209 2.34231 15.5139 2.35631L15.7079 2.36331C15.9319 2.37131 16.1529 2.38131 16.4199 2.39331C17.4839 2.44331 18.2099 2.61131 18.8469 2.85831C19.5069 3.11231 20.0629 3.45631 20.6189 4.01131C21.1276 4.51105 21.5211 5.11578 21.7719 5.78331C22.0189 6.42031 22.1869 7.14631 22.2369 8.21131C22.2489 8.47731 22.2589 8.69831 22.2669 8.92331L22.2729 9.11731C22.2879 9.60931 22.2939 10.1803 22.2959 11.3053L22.2969 12.0513V13.3613C22.2993 14.0907 22.2917 14.8201 22.2739 15.5493L22.2679 15.7433C22.2599 15.9683 22.2499 16.1893 22.2379 16.4553C22.1879 17.5203 22.0179 18.2453 21.7719 18.8833C21.5211 19.5508 21.1276 20.1556 20.6189 20.6553C20.1192 21.164 19.5144 21.5575 18.8469 21.8083C18.2099 22.0553 17.4839 22.2233 16.4199 22.2733L15.7079 22.3033L15.5139 22.3093C15.0209 22.3233 14.4499 22.3303 13.3249 22.3323L12.5789 22.3333H11.2699C10.5402 22.3359 9.81042 22.3282 9.0809 22.3103L8.8869 22.3043C8.64951 22.2953 8.41217 22.285 8.17489 22.2733C7.11089 22.2233 6.38489 22.0553 5.74689 21.8083C5.07972 21.5574 4.47534 21.1639 3.97589 20.6553C3.46684 20.1557 3.073 19.5509 2.82189 18.8833C2.57489 18.2463 2.40689 17.5203 2.35689 16.4553L2.32689 15.7433L2.32189 15.5493C2.30346 14.8201 2.29513 14.0907 2.29689 13.3613V11.3053C2.29413 10.5759 2.30146 9.84651 2.31889 9.11731L2.32589 8.92331C2.33389 8.69831 2.34389 8.47731 2.35589 8.21131C2.40589 7.14631 2.57389 6.42131 2.82089 5.78331C3.07259 5.11551 3.46712 4.51075 3.97689 4.01131C4.47605 3.50286 5.08008 3.10939 5.74689 2.85831C6.38489 2.61131 7.10989 2.44331 8.17489 2.39331C8.4409 2.38131 8.6629 2.37131 8.8869 2.36331L9.0809 2.35731C9.81009 2.33955 10.5395 2.33188 11.2689 2.33431L13.3249 2.33331ZM12.2969 7.33331C10.9708 7.33331 9.69904 7.8601 8.76136 8.79778C7.82368 9.73546 7.2969 11.0072 7.2969 12.3333C7.2969 13.6594 7.82368 14.9312 8.76136 15.8688C9.69904 16.8065 10.9708 17.3333 12.2969 17.3333C13.623 17.3333 14.8947 16.8065 15.8324 15.8688C16.7701 14.9312 17.2969 13.6594 17.2969 12.3333C17.2969 11.0072 16.7701 9.73546 15.8324 8.79778C14.8947 7.8601 13.623 7.33331 12.2969 7.33331ZM12.2969 9.33331C12.6909 9.33325 13.081 9.41078 13.445 9.56148C13.809 9.71219 14.1397 9.93311 14.4184 10.2116C14.697 10.4902 14.918 10.8208 15.0688 11.1848C15.2197 11.5488 15.2973 11.9388 15.2974 12.3328C15.2975 12.7268 15.2199 13.1169 15.0692 13.4809C14.9185 13.8449 14.6976 14.1757 14.4191 14.4543C14.1405 14.7329 13.8099 14.9539 13.4459 15.1048C13.082 15.2556 12.6919 15.3332 12.2979 15.3333C11.5022 15.3333 10.7392 15.0172 10.1766 14.4546C9.61397 13.892 9.2979 13.129 9.2979 12.3333C9.2979 11.5377 9.61397 10.7746 10.1766 10.212C10.7392 9.64938 11.5022 9.33331 12.2979 9.33331M17.5479 5.83331C17.2164 5.83331 16.8984 5.96501 16.664 6.19943C16.4296 6.43385 16.2979 6.75179 16.2979 7.08331C16.2979 7.41483 16.4296 7.73278 16.664 7.9672C16.8984 8.20162 17.2164 8.33331 17.5479 8.33331C17.8794 8.33331 18.1974 8.20162 18.4318 7.9672C18.6662 7.73278 18.7979 7.41483 18.7979 7.08331C18.7979 6.75179 18.6662 6.43385 18.4318 6.19943C18.1974 5.96501 17.8794 5.83331 17.5479 5.83331Z" fill="white"/>
</svg>
